<svg width="121" height="40" viewBox="0 0 121 40" fill="none" xmlns="http://www.w3.org/2000/svg">
<path d="M111.055 0.00013H9.61436C9.24459 0.00013 8.87927 0.00013 8.51048 0.00213C8.20177 0.00413 7.89552 0.00994 7.58385 0.01483C6.90675 0.0227318 6.23125 0.0818063 5.5632 0.19154C4.8961 0.303663 4.24989 0.515046 3.64644 0.81854C3.04372 1.1246 2.49301 1.5223 2.01426 1.9972C1.53301 2.47077 1.13184 3.01815 0.826197 3.61829C0.519707 4.21724 0.307186 4.85907 0.195974 5.52161C0.0837046 6.18332 0.0232914 6.85265 0.0152766 7.52361C0.00591905 7.83021 0.00493086 8.13783 0 8.44447V31.5587C0.00493086 31.8692 0.00591905 32.17 0.0152766 32.4806C0.0232939 33.1516 0.0837071 33.8209 0.195974 34.4825C0.306879 35.1455 0.519413 35.7877 0.826197 36.3868C1.1317 36.985 1.53292 37.5302 2.01426 38.0011C2.49119 38.4781 3.04226 38.8761 3.64644 39.1798C4.24989 39.4841 4.89603 39.6968 5.5632 39.8106C6.23136 39.9195 6.9068 39.9786 7.58385 39.9874C7.89552 39.9942 8.20177 39.9981 8.51048 39.9981C8.87926 40.0001 9.24461 40.0001 9.61436 40.0001H111.055C111.418 40.0001 111.786 40.0001 112.148 39.9981C112.455 39.9981 112.771 39.9942 113.078 39.9874C113.754 39.9791 114.428 39.92 115.095 39.8106C115.764 39.696 116.412 39.4834 117.019 39.1798C117.622 38.8759 118.173 38.478 118.649 38.0011C119.129 37.5284 119.532 36.9836 119.841 36.3868C120.145 35.7872 120.356 35.1451 120.465 34.4825C120.578 33.8208 120.64 33.1516 120.652 32.4806C120.656 32.17 120.656 31.8692 120.656 31.5587C120.664 31.1954 120.664 30.8341 120.664 30.4649V9.53626C120.664 9.17005 120.664 8.80677 120.656 8.44447C120.656 8.13783 120.656 7.83021 120.652 7.52357C120.64 6.85255 120.578 6.18337 120.465 5.52157C120.356 4.85941 120.145 4.21763 119.841 3.61825C119.218 2.41533 118.231 1.43616 117.019 0.81845C116.412 0.515697 115.764 0.30437 115.095 0.19145C114.428 0.0812328 113.754 0.0221378 113.078 0.01469C112.771 0.00981 112.455 0.00395 112.148 0.002C111.786 0 111.418 0 111.055 0V0.00013Z" fill="#A6A6A6"/>
<path d="M8.51544 39.1251C8.20821 39.1251 7.90841 39.1212 7.60359 39.1144C6.97214 39.1063 6.34216 39.0517 5.71883 38.9513C5.1376 38.852 4.57455 38.6674 4.04824 38.4034C3.52676 38.1416 3.05113 37.7984 2.63957 37.3868C2.22205 36.9801 1.87445 36.5084 1.61053 35.9903C1.34371 35.4689 1.15905 34.91 1.06299 34.3331C0.959259 33.7132 0.903134 33.0864 0.895103 32.4581C0.88871 32.2472 0.880341 31.545 0.880341 31.545V8.44446C0.880341 8.44446 0.889254 7.75305 0.895153 7.54992C0.902843 6.9226 0.958642 6.29678 1.06207 5.67785C1.1583 5.09937 1.3431 4.53887 1.61007 4.01575C1.87301 3.49807 2.21869 3.02598 2.63369 2.6178C3.04823 2.20574 3.52538 1.86073 4.04775 1.59533C4.57285 1.33222 5.13483 1.14885 5.71489 1.05139C6.34027 0.949958 6.97243 0.895118 7.60607 0.887332L8.51593 0.875122H112.143L113.064 0.887822C113.692 0.895221 114.318 0.949572 114.938 1.05041C115.524 1.1491 116.092 1.33374 116.623 1.59826C117.669 2.13311 118.521 2.97929 119.058 4.01819C119.321 4.5377 119.503 5.09363 119.598 5.66711C119.702 6.29111 119.761 6.92186 119.773 7.55432C119.776 7.83752 119.776 8.14172 119.776 8.44446C119.784 8.81946 119.784 9.17639 119.784 9.53625V30.4649C119.784 30.8282 119.784 31.1827 119.776 31.5401C119.776 31.8653 119.776 32.1632 119.772 32.4698C119.76 33.091 119.703 33.7105 119.6 34.3233C119.505 34.9044 119.322 35.4676 119.055 35.9933C118.789 36.5057 118.444 36.9734 118.031 37.379C117.619 37.7928 117.143 38.1381 116.62 38.4015C116.09 38.6675 115.523 38.8529 114.938 38.9513C114.315 39.0523 113.685 39.1068 113.053 39.1144C112.758 39.1212 112.449 39.1251 112.148 39.1251L111.055 39.1271L8.51544 39.1251Z" fill="black"/>
<path d="M24.976 20.3008C24.9868 19.4662 25.2104 18.6478 25.6258 17.9218C26.0413 17.1959 26.6352 16.5859 27.3522 16.1488C26.8967 15.5036 26.2958 14.9727 25.5972 14.5981C24.8986 14.2236 24.1215 14.0157 23.3277 13.9911C21.6344 13.8148 19.9929 14.9959 19.13 14.9959C18.2505 14.9959 16.922 14.0086 15.4914 14.0378C14.566 14.0674 13.6642 14.3343 12.8738 14.8123C12.0834 15.2904 11.4313 15.9633 10.9811 16.7656C9.03091 20.1141 10.4856 25.0351 12.3537 27.7417C13.2883 29.0671 14.3806 30.5475 15.8099 30.495C17.2086 30.4375 17.7309 29.6105 19.4192 29.6105C21.0919 29.6105 21.5819 30.495 23.0402 30.4616C24.5411 30.4375 25.4867 29.1304 26.3885 27.7925C27.06 26.8481 27.5768 25.8044 27.9196 24.7C27.0477 24.3343 26.3036 23.7221 25.7801 22.9398C25.2567 22.1575 24.977 21.2397 24.976 20.3008Z" fill="white"/>
<path d="M22.2216 12.2111C23.0399 11.2369 23.443 9.98469 23.3454 8.72046C22.0952 8.85068 20.9404 9.44324 20.111 10.3801C19.7055 10.8377 19.3949 11.3702 19.1971 11.9469C18.9992 12.5237 18.9178 13.1335 18.9577 13.7415C19.5831 13.7478 20.2017 13.6134 20.767 13.3483C21.3324 13.0833 21.8297 12.6944 22.2216 12.2111Z" fill="white"/>
<path d="M42.6561 27.1398H37.8831L36.7369 30.4962H34.7153L39.2361 18.0782H41.3365L45.8574 30.4962H43.8013L42.6561 27.1398ZM38.3775 25.591H42.1608L40.2957 20.1437H40.2435L38.3775 25.591Z" fill="white"/>
<path d="M55.6211 25.9699C55.6211 28.7834 54.1026 30.591 51.8112 30.591C51.2307 30.6211 50.6534 30.4885 50.1454 30.2084C49.6374 29.9283 49.2192 29.5119 48.9388 29.007H48.8954V33.4914H47.0215V21.4426H48.8354V22.9485H48.8698C49.1632 22.446 49.5885 22.0318 50.1003 21.7499C50.6122 21.4681 51.1915 21.3291 51.7767 21.3479C54.0937 21.3479 55.6211 23.1643 55.6211 25.9699ZM53.695 25.9699C53.695 24.1369 52.7398 22.9319 51.2824 22.9319C49.8506 22.9319 48.8875 24.1623 48.8875 25.9699C48.8875 27.7942 49.8506 29.0158 51.2824 29.0158C52.7398 29.0158 53.695 27.8196 53.695 25.9699Z" fill="white"/>
<path d="M65.6692 25.9699C65.6692 28.7834 64.1508 30.591 61.8593 30.591C61.2788 30.6211 60.7016 30.4885 60.1936 30.2084C59.6855 29.9283 59.2674 29.5119 58.9869 29.007H58.9435V33.4914H57.0696V21.4426H58.8834V22.9484H58.9179C59.2113 22.446 59.6365 22.0318 60.1484 21.7499C60.6603 21.4681 61.2396 21.3291 61.8248 21.3479C64.1419 21.3479 65.6692 23.1643 65.6692 25.9699ZM63.7431 25.9699C63.7431 24.1369 62.7879 22.9318 61.3305 22.9318C59.8987 22.9318 58.9357 24.1623 58.9357 25.9699C58.9357 27.7942 59.8987 29.0158 61.3305 29.0158C62.7879 29.0158 63.7431 27.8195 63.7431 25.9699H63.7431Z" fill="white"/>
<path d="M72.3102 27.0363C72.449 28.2678 73.6553 29.0763 75.3037 29.0763C76.8832 29.0763 78.0196 28.2677 78.0196 27.1574C78.0196 26.1935 77.3342 25.6164 75.7114 25.2208L74.0886 24.8331C71.7893 24.2824 70.7218 23.2159 70.7218 21.4855C70.7218 19.3429 72.6046 17.8712 75.2781 17.8712C77.9241 17.8712 79.7379 19.3429 79.799 21.4855H77.9073C77.7941 20.2462 76.7611 19.4982 75.2515 19.4982C73.7419 19.4982 72.709 20.255 72.709 21.3566C72.709 22.2345 73.3687 22.7511 74.9827 23.1466L76.3623 23.4825C78.9314 24.0851 79.9989 25.1085 79.9989 26.9249C79.9989 29.2481 78.1328 30.7032 75.1649 30.7032C72.3879 30.7032 70.513 29.2823 70.3919 27.0362L72.3102 27.0363Z" fill="white"/>
<path d="M84.0431 19.2999V21.4425H85.7792V22.9142H84.0431V27.9054C84.0431 28.6808 84.3907 29.0421 85.1539 29.0421C85.36 29.0386 85.5657 29.0242 85.7703 28.9991V30.462C85.4272 30.5256 85.0785 30.5544 84.7295 30.5479C82.8811 30.5479 82.1603 29.8595 82.1603 28.1036V22.9142H80.8329V21.4425H82.1603V19.2999H84.0431Z" fill="white"/>
<path d="M86.7846 25.9698C86.7846 23.1212 88.4763 21.3312 91.1144 21.3312C93.7614 21.3312 95.4452 23.1212 95.4452 25.9698C95.4452 28.8263 93.7702 30.6085 91.1144 30.6085C88.4596 30.6085 86.7846 28.8263 86.7846 25.9698ZM93.5358 25.9698C93.5358 24.0157 92.6329 22.8624 91.1144 22.8624C89.596 22.8624 88.694 24.0245 88.694 25.9698C88.694 27.9318 89.596 29.0763 91.1144 29.0763C92.6329 29.0763 93.5358 27.9318 93.5358 25.9698H93.5358Z" fill="white"/>
<path d="M96.9903 21.4425H98.7775V22.9835H98.8209C98.9418 22.5022 99.2261 22.0769 99.626 21.779C100.026 21.4811 100.517 21.3288 101.017 21.3478C101.233 21.347 101.448 21.3703 101.659 21.4171V23.1554C101.386 23.0728 101.102 23.0348 100.817 23.0431C100.545 23.0321 100.273 23.0797 100.021 23.1826C99.7694 23.2855 99.5429 23.4412 99.3574 23.6391C99.1719 23.837 99.0318 24.0724 98.9466 24.3291C98.8615 24.5857 98.8334 24.8576 98.8642 25.1261V30.4962H96.9903L96.9903 21.4425Z" fill="white"/>
<path d="M110.299 27.837C110.047 29.4806 108.433 30.6085 106.368 30.6085C103.712 30.6085 102.064 28.8439 102.064 26.0128C102.064 23.173 103.721 21.3312 106.289 21.3312C108.815 21.3312 110.403 23.0519 110.403 25.797V26.4337H103.955V26.546C103.925 26.8792 103.968 27.2149 104.079 27.5307C104.19 27.8466 104.367 28.1353 104.6 28.3779C104.832 28.6204 105.114 28.8112 105.426 28.9375C105.738 29.0638 106.074 29.1228 106.411 29.1105C106.854 29.1516 107.298 29.0499 107.678 28.8205C108.058 28.591 108.353 28.2461 108.519 27.837L110.299 27.837ZM103.964 25.1349H108.528C108.545 24.8353 108.499 24.5355 108.394 24.2543C108.288 23.9731 108.125 23.7165 107.915 23.5008C107.705 23.285 107.452 23.1147 107.172 23.0004C106.892 22.8862 106.592 22.8306 106.289 22.837C105.984 22.8352 105.681 22.8934 105.399 23.0081C105.117 23.1229 104.86 23.2919 104.644 23.5056C104.428 23.7192 104.256 23.9732 104.14 24.2528C104.023 24.5325 103.963 24.8323 103.964 25.1349V25.1349Z" fill="white"/>
</svg>
